Coordinates
version=1
nRows=30
nColumns=33
inDegrees=yes

Units are S.I. units (second, meters, Newtons, ...)
Angles are in degrees.

endheader
time	ground_thorax_rot_x	ground_thorax_rot_y	ground_thorax_rot_z	ground_thorax_tx	ground_thorax_ty	ground_thorax_tz	clav_prot_r	clav_elev_r	scapula_abduction_r	scapula_elevation_r	scapula_upward_rot_r	scapula_winging_r	shoulder_elv_r	plane_of_elev_r	axial_rot_r	elbow_flexion_r	pro_sup_r	wrist_flex_r	wrist_dev_r	clav_prot_l	clav_elev_l	scapula_abduction_l	scapula_elevation_l	scapula_upward_rot_l	scapula_winging_l	shoulder_elv_l	plane_of_elev_l	axial_rot_l	elbow_flexion_l	pro_sup_l	wrist_flex_l	wrist_dev_l	
3.6600	-35.344173	-24.074972	27.230435	-36.851578	833.722860	-47.163988	25.188354	-45.000000	38.963851	-45.000000	-42.716376	-4415.493568	-1724.746969	24.971645	180.000000	1802.138869	-180.055549	14.165963	14.889479	2.084348	29.334015	-28.241145	-45.000000	-45.000000	-4601.645559	-2422.120953	19.391408	-180.000000	1798.184332	-179.304327	11.121870	-16.489387	
3.6700	-35.523436	-23.880896	26.748966	-38.769734	835.154579	-47.306557	25.104829	-45.000000	39.014556	-45.000000	-42.463482	-4415.629859	-1724.663300	24.997649	180.000000	1802.148069	-180.384322	14.235827	14.923836	2.064187	29.396544	-28.347818	-45.000000	-45.000000	-4601.533934	-2422.072264	19.438975	-180.000000	1798.170961	-179.398450	11.088878	-16.576201	
3.6800	-35.699100	-23.687781	26.278148	-40.665677	836.538171	-47.438836	25.017297	-45.000000	39.058526	-45.000000	-42.243914	-4415.760421	-1724.581540	25.021460	180.000000	1802.157999	-180.707893	14.306044	14.962022	2.052334	29.450746	-28.449876	-45.000000	-45.000000	-4601.432362	-2422.025191	19.479870	-180.000000	1798.155014	-179.469194	11.051203	-16.661851	
3.6900	-35.884876	-23.470417	25.774593	-42.537595	837.869626	-47.559825	24.915369	-45.000000	39.109114	-45.000000	-41.979846	-4415.880459	-1724.512518	25.034804	180.000000	1802.175608	-181.027620	14.377132	15.004275	2.049131	29.496539	-28.555886	-45.000000	-45.000000	-4601.345998	-2421.982725	19.514606	-180.000000	1798.129121	-179.508326	10.997021	-16.754792	
3.7000	-36.067940	-23.259250	25.288237	-44.383658	839.146307	-47.669496	24.812717	-45.000000	39.145796	-45.000000	-41.763197	-4415.995237	-1724.448159	25.051117	180.000000	1802.193481	-181.345357	14.447219	15.051370	2.052116	29.534228	-28.652192	-45.000000	-45.000000	-4601.265473	-2421.939070	19.544109	-180.000000	1798.106948	-179.520310	10.941786	-16.845071	
3.7100	-36.235885	-23.087341	24.859757	-46.201266	840.366847	-47.768745	24.729331	-45.000000	39.159313	-45.000000	-41.661062	-4416.108167	-1724.386059	25.078150	180.000000	1802.207032	-181.674960	14.515029	15.102752	2.049173	29.569288	-28.729048	-45.000000	-45.000000	-4601.178450	-2421.900420	19.568145	-180.000000	1798.098400	-179.494923	10.898056	-16.930818	
3.7200	-36.386507	-22.950650	24.490422	-47.987905	841.531727	-47.859189	24.663585	-45.000000	39.153643	-45.000000	-41.670915	-4416.219879	-1724.322974	25.111103	180.000000	1802.213265	-182.018090	14.576812	15.156294	2.044797	29.601282	-28.787086	-45.000000	-45.000000	-4601.089842	-2421.864133	19.584448	-180.000000	1798.101308	-179.426402	10.863342	-17.013188	
3.7300	-36.522302	-22.834715	24.156374	-49.741157	842.642803	-47.942780	24.610305	-45.000000	39.142512	-45.000000	-41.738982	-4416.328252	-1724.262555	25.140677	180.000000	1802.215655	-182.369946	14.631948	15.208493	2.038104	29.631147	-28.832351	-45.000000	-45.000000	-4601.006155	-2421.836297	19.590962	-180.000000	1798.107887	-179.312798	10.828771	-17.098646	
3.7400	-36.651912	-22.719201	23.836431	-51.460011	843.703370	-48.021505	24.561336	-45.000000	39.125568	-45.000000	-41.833723	-4416.431122	-1724.206177	25.166041	180.000000	1802.217383	-182.715990	14.683892	15.258810	2.031019	29.658618	-28.870760	-45.000000	-45.000000	-4600.928253	-2421.810074	19.592884	-180.000000	1798.117178	-179.165840	10.791868	-17.187816	
3.7500	-36.763007	-22.632161	23.567304	-53.144875	844.717247	-48.097152	24.529920	-45.000000	39.097493	-45.000000	-42.024580	-4416.531581	-1724.149532	25.190825	180.000000	1802.209594	-183.052733	14.733084	15.304658	2.024292	29.684779	-28.896196	-45.000000	-45.000000	-4600.849163	-2421.791182	19.584168	-180.000000	1798.129163	-178.992111	10.762211	-17.277068	
3.7600	-36.875173	-22.525455	23.286793	-54.798015	845.688465	-48.171260	24.501082	-45.000000	39.064615	-45.000000	-42.201949	-4416.625319	-1724.097677	25.211403	180.000000	1802.207012	-183.369548	14.781094	15.345881	2.022143	29.708279	-28.920994	-45.000000	-45.000000	-4600.778504	-2421.772371	19.577455	-180.000000	1798.139502	-178.793426	10.727442	-17.371873	
3.7700	-36.981509	-22.404274	23.001664	-56.422861	846.620517	-48.245129	24.473808	-45.000000	39.031855	-45.000000	-42.369813	-4416.714051	-1724.047629	25.224276	180.000000	1802.205661	-183.657711	14.829165	15.379127	2.024936	29.727180	-28.945903	-45.000000	-45.000000	-4600.719265	-2421.758528	19.566754	-180.000000	1798.144006	-178.583698	10.686106	-17.470907	
3.7800	-37.095867	-22.247806	22.683115	-58.023521	847.516350	-48.319827	24.442326	-45.000000	38.995769	-45.000000	-42.482589	-4416.795868	-1724.004394	25.235728	180.000000	1802.215426	-183.911800	14.884341	15.407373	2.020775	29.745950	-28.973576	-45.000000	-45.000000	-4600.667595	-2421.742649	19.567713	-180.000000	1798.153957	-178.371693	10.640251	-17.575291	
3.7900	-37.191065	-22.124232	22.422995	-59.603977	848.378281	-48.396090	24.431627	-45.000000	38.937070	-45.000000	-42.707967	-4416.878751	-1723.956457	25.257107	180.000000	1802.214875	-184.137920	14.942714	15.428031	2.016765	29.763667	-28.984032	-45.000000	-45.000000	-4600.610845	-2421.728516	19.564475	-180.000000	1798.172291	-178.161183	10.610249	-17.674052	
3.8000	-37.282668	-22.004069	22.180755	-61.167429	849.208152	-48.474130	24.436266	-45.000000	38.857282	-45.000000	-42.977656	-4416.960778	-1723.912215	25.290631	180.000000	1802.217563	-184.342169	15.007427	15.444881	2.005339	29.782831	-28.984450	-45.000000	-45.000000	-4600.549043	-2421.712850	19.571227	-180.000000	1798.200419	-177.939486	10.593192	-17.773188	
3.8100	-37.367192	-21.882496	21.951064	-62.716040	850.007297	-48.553420	24.447205	-45.000000	38.770114	-45.000000	-43.272752	-4417.041012	-1723.869972	25.323330	180.000000	1802.217129	-184.522002	15.076703	15.455321	1.997046	29.798734	-28.980949	-45.000000	-45.000000	-4600.489428	-2421.697327	19.577576	-180.000000	1798.221668	-177.708093	10.577390	-17.875515	
3.8200	-37.456311	-21.738289	21.702240	-64.251017	850.776467	-48.632611	24.456486	-45.000000	38.679849	-45.000000	-43.532666	-4417.115965	-1723.836580	25.354972	180.000000	1802.225499	-184.678647	15.155782	15.462133	1.976984	29.817358	-28.978343	-45.000000	-45.000000	-4600.431245	-2421.681353	19.594906	-180.000000	1798.243436	-177.464694	10.559567	-17.985913	
3.8300	-37.534845	-21.603332	21.478761	-65.772931	851.515642	-48.709631	24.472062	-45.000000	38.581170	-45.000000	-43.840455	-4417.189107	-1723.804194	25.386250	180.000000	1802.225420	-184.815186	15.238139	15.464211	1.963355	29.833089	-28.968272	-45.000000	-45.000000	-4600.374625	-2421.663370	19.608028	-180.000000	1798.259234	-177.209522	10.541851	-18.096729	
3.8400	-37.609323	-21.455484	21.248387	-67.281844	852.223803	-48.782024	24.486360	-45.000000	38.486050	-45.000000	-44.119160	-4417.258727	-1723.776209	25.412772	180.000000	1802.230330	-184.939948	15.323200	15.462562	1.941657	29.848133	-28.956654	-45.000000	-45.000000	-4600.326668	-2421.645994	19.621859	-180.000000	1798.272229	-176.933495	10.515576	-18.213590	
3.8500	-37.680338	-21.277071	20.988467	-68.777244	852.898896	-48.847381	24.484704	-45.000000	38.409614	-45.000000	-44.317763	-4417.318738	-1723.752160	25.418833	180.000000	1802.236234	-185.049314	15.405866	15.454542	1.930470	29.852984	-28.953022	-45.000000	-45.000000	-4600.301911	-2421.631486	19.622881	-180.000000	1798.263725	-176.645795	10.459912	-18.335980	
3.8600	-37.750633	-21.072184	20.701509	-70.258507	853.538309	-48.903899	24.467918	-45.000000	38.348271	-45.000000	-44.437650	-4417.371224	-1723.733966	25.410822	180.000000	1802.250336	-185.143726	15.489596	15.441848	1.912744	29.854789	-28.953152	-45.000000	-45.000000	-4600.293543	-2421.618368	19.620290	-180.000000	1798.248116	-176.349586	10.382832	-18.464049	
3.8700	-37.814387	-20.854906	20.409864	-71.724167	854.139185	-48.950696	24.442965	-45.000000	38.291726	-45.000000	-44.526208	-4417.417513	-1723.718481	25.393698	180.000000	1802.264678	-185.222213	15.570964	15.424550	1.902942	29.848884	-28.952300	-45.000000	-45.000000	-4600.299436	-2421.604798	19.610104	-180.000000	1798.220721	-176.048611	10.287728	-18.590865	
3.8800	-37.873231	-20.624498	20.111811	-73.172364	854.699058	-48.988030	24.410401	-45.000000	38.246155	-45.000000	-44.570269	-4417.464051	-1723.710152	25.367982	180.000000	1802.282703	-185.288555	15.654776	15.405607	1.879396	29.842298	-28.951136	-45.000000	-45.000000	-4600.313772	-2421.590600	19.600101	-180.000000	1798.191939	-175.738960	10.179906	-18.719923	
3.8900	-37.926611	-20.386726	19.814929	-74.600180	855.215962	-49.017140	24.373968	-45.000000	38.202026	-45.000000	-44.595024	-4417.508388	-1723.706948	25.339685	180.000000	1802.301890	-185.340071	15.738955	15.385268	1.857217	29.833205	-28.946898	-45.000000	-45.000000	-4600.333420	-2421.573665	19.591444	-180.000000	1798.157430	-175.418444	10.064441	-18.847874	
3.9000	-37.971917	-20.154348	19.534983	-76.004517	855.688765	-49.040024	24.339118	-45.000000	38.156509	-45.000000	-44.631193	-4417.553612	-1723.707834	25.312509	180.000000	1802.320145	-185.377935	15.826513	15.363831	1.826471	29.826966	-28.937490	-45.000000	-45.000000	-4600.351329	-2421.555867	19.586117	-180.000000	1798.127118	-175.081493	9.948620	-18.974359	
3.9100	-38.006868	-19.934622	19.282579	-77.381779	856.116812	-49.058990	24.312416	-45.000000	38.098022	-45.000000	-44.701422	-4417.598865	-1723.708388	25.295710	180.000000	1802.339171	-185.402674	15.916479	15.341539	1.792111	29.824682	-28.916746	-45.000000	-45.000000	-4600.362500	-2421.536086	19.590594	-180.000000	1798.097834	-174.720591	9.841113	-19.098920	
3.9200	-38.034669	-19.720114	19.045030	-78.728751	856.499886	-49.076372	24.287441	-45.000000	38.040574	-45.000000	-44.774169	-4417.643971	-1723.712511	25.279725	180.000000	1802.356087	-185.414592	16.011447	15.319017	1.746680	29.826618	-28.892196	-45.000000	-45.000000	-4600.369085	-2421.518025	19.599126	-180.000000	1798.067249	-174.334233	9.734012	-19.224198	
3.9300	-38.057439	-19.514725	18.827798	-80.042404	856.837887	-49.094232	24.270963	-45.000000	37.971341	-45.000000	-44.864510	-4417.687242	-1723.718362	25.275435	180.000000	1802.378859	-185.410639	16.107700	15.298075	1.699660	29.832233	-28.855888	-45.000000	-45.000000	-4600.367958	-2421.493774	19.620369	-180.000000	1798.034895	-173.918863	9.638748	-19.346393	
3.9400	-38.078173	-19.306897	18.614124	-81.320136	857.130849	-49.114270	24.254259	-45.000000	37.907846	-45.000000	-44.939034	-4417.727368	-1723.730620	25.268742	180.000000	1802.399553	-185.388710	16.207096	15.278902	1.650819	29.837072	-28.818875	-45.000000	-45.000000	-4600.367468	-2421.468873	19.643086	-180.000000	1797.997009	-173.479501	9.542402	-19.464295	
3.9500	-38.098176	-19.095995	18.403474	-82.559495	857.378846	-49.137776	24.237954	-45.000000	37.845538	-45.000000	-44.993427	-4417.765477	-1723.749707	25.265145	180.000000	1802.423650	-185.347040	16.309302	15.263627	1.596381	29.843076	-28.774230	-45.000000	-45.000000	-4600.367804	-2421.437897	19.676210	-180.000000	1797.956196	-173.019512	9.451000	-19.577212	
